<svg width="29" height="19" viewBox="0 0 29 19" fill="none" xmlns="http://www.w3.org/2000/svg">
<path d="M10.5707 2.03174H18.4055V16.9678H10.5707V2.03174Z" fill="#FF5F00"/>
<path d="M11.0682 9.5C11.0682 6.46532 12.4113 3.7736 14.4756 2.03189C12.9585 0.765251 11.0434 0 8.95414 0C4.00438 0 0 4.24855 0 9.5C0 14.7513 4.00438 19 8.95403 19C11.0433 19 12.9584 18.2348 14.4756 16.968C12.4113 15.2527 11.0682 12.5347 11.0682 9.5Z" fill="#EB001B"/>
<path d="M28.9762 9.5C28.9762 14.7513 24.9718 19 20.0221 19C17.9329 19 16.0178 18.2348 14.5005 16.968C16.5898 15.2264 17.9081 12.5347 17.9081 9.5C17.9081 6.46532 16.5649 3.7736 14.5005 2.03189C16.0176 0.765251 17.9329 0 20.0221 0C24.9718 0 28.9762 4.27499 28.9762 9.5Z" fill="#F79E1B"/>
</svg>
