<svg width="15" height="18" viewBox="0 0 15 18" fill="none" xmlns="http://www.w3.org/2000/svg">
<path d="M12.7247 1.3774C11.9083 0.446816 10.4324 0.0478516 8.54434 0.0478516H3.06466C2.87785 0.0478585 2.69717 0.114504 2.55511 0.235807C2.41305 0.357109 2.31891 0.525112 2.28964 0.709609L0.00799609 15.1803C-0.0373555 15.4657 0.183602 15.7241 0.47282 15.7241H3.85579L4.7054 10.3352L4.67903 10.5039C4.73956 10.123 5.06534 9.84203 5.45112 9.84203H7.0587C10.2168 9.84203 12.6896 8.5593 13.412 4.84861C13.4334 4.73887 13.452 4.63205 13.468 4.5277C13.3769 4.47941 13.3769 4.47941 13.468 4.5277C13.6831 3.15619 13.4666 2.22262 12.7247 1.3774Z" fill="#27346A"/>
<path d="M5.99985 4.03363C6.09234 3.98959 6.19349 3.96677 6.29593 3.96684H10.5919C11.1006 3.96684 11.5751 3.99994 12.0087 4.06973C12.13 4.08907 12.2507 4.11217 12.3706 4.13898C12.5406 4.17648 12.7086 4.22238 12.874 4.2765C13.0871 4.34769 13.2856 4.43061 13.4681 4.5277C13.6831 3.15566 13.4666 2.22262 12.7247 1.3774C11.9078 0.446816 10.4324 0.0478516 8.54434 0.0478516H3.06419C2.67835 0.0478516 2.35011 0.32875 2.28964 0.709609L0.00799641 15.1798C-0.0373552 15.4656 0.183602 15.7237 0.472352 15.7237H3.85579L5.61847 4.54574C5.6358 4.43587 5.67956 4.33186 5.746 4.24265C5.81244 4.15344 5.89955 4.08171 5.99985 4.03363Z" fill="#27346A"/>
<path d="M13.4119 4.84875C12.6896 8.55891 10.2168 9.84217 7.05867 9.84217H5.45062C5.06484 9.84217 4.739 10.1231 4.67906 10.504L3.62208 17.2045C3.58259 17.4543 3.77572 17.6805 4.02837 17.6805H6.88013C7.04349 17.6805 7.20147 17.6222 7.32567 17.5161C7.44986 17.4099 7.53212 17.263 7.55765 17.1016L7.58542 16.9563L8.1229 13.5499L8.15753 13.3617C8.18306 13.2003 8.26531 13.0534 8.38949 12.9473C8.51368 12.8411 8.67165 12.7828 8.83499 12.7828H9.26179C12.0243 12.7828 14.1874 11.6604 14.8195 8.41459C15.0834 7.05814 14.9468 5.92564 14.2489 5.13018C14.0372 4.88924 13.7743 4.69025 13.468 4.52783C13.4514 4.63271 13.4334 4.739 13.4119 4.84875Z" fill="#2790C3"/>
<path d="M12.712 4.22631C12.5994 4.19342 12.4857 4.1643 12.3711 4.13901C12.2511 4.11263 12.1304 4.08969 12.0092 4.07022C11.5751 3.99996 11.101 3.9668 10.5918 3.9668H6.29634C6.19383 3.96657 6.0926 3.98958 6.00026 4.03412C5.89985 4.08206 5.81264 4.15374 5.74617 4.24298C5.67971 4.33221 5.63599 4.4363 5.61882 4.54623L4.70581 10.3352L4.67944 10.5039C4.7395 10.123 5.06528 9.84205 5.45112 9.84205H7.05917C10.2173 9.84205 12.69 8.55932 13.4124 4.84863C13.4339 4.73889 13.4519 4.63254 13.4685 4.52772C13.2856 4.43115 13.0876 4.34772 12.8744 4.27699C12.8206 4.25916 12.7665 4.24226 12.7121 4.22631" fill="#1F264F"/>
</svg>
