<svg width="24" height="19" viewBox="0 0 24 19" fill="none" xmlns="http://www.w3.org/2000/svg">
<path d="M19.5879 8.30449C19.5879 8.30449 19.9044 9.85469 19.9756 10.1794H18.5844L19.2511 8.36674C19.2429 8.37949 19.3884 7.98725 19.4716 7.74576L19.5879 8.30449ZM24 2.00019V16.6667C23.9998 17.1972 23.789 17.7058 23.4139 18.0809C23.0389 18.4559 22.5302 18.6667 21.9998 18.6669H2.00019C1.46977 18.6667 0.961126 18.4559 0.586061 18.0809C0.210996 17.7058 0.000198772 17.1972 0 16.6667V2.00019C0.000198772 1.46977 0.210996 0.961126 0.586061 0.586061C0.961126 0.210996 1.46977 0.000198772 2.00019 0H21.9998C22.5302 0.000198772 23.0389 0.210996 23.4139 0.586061C23.789 0.961126 23.9998 1.46977 24 2.00019ZM6.35455 12.4669L8.98772 6.00056H7.21702L5.57983 10.4172L5.40058 9.5217L4.8171 6.54655C4.7211 6.13406 4.42561 6.01706 4.05887 6.00056H1.36346L1.33421 6.12956C1.9515 6.28099 2.54361 6.52098 3.09215 6.84204L4.58386 12.4669H6.35455ZM10.2882 12.4751L11.3381 6.00056H9.66345L8.61798 12.4751H10.2882ZM16.117 10.3587C16.1252 9.62145 15.6753 9.05897 14.713 8.59623C14.1258 8.29999 13.7673 8.1005 13.7673 7.79601C13.7756 7.52077 14.0718 7.23727 14.7295 7.23727C15.1579 7.22519 15.5836 7.30925 15.9753 7.48327L16.1252 7.55376L16.3547 6.15356C15.876 5.97027 15.3674 5.87696 14.8548 5.87832C13.2003 5.87832 12.0379 6.76179 12.0296 8.0195C12.0169 8.94872 12.8628 9.46545 13.4966 9.77744C14.1423 10.0939 14.3636 10.3024 14.3636 10.5814C14.3553 11.0149 13.8386 11.2144 13.3593 11.2144C12.6926 11.2144 12.3341 11.1102 11.7881 10.8687L11.5676 10.7644L11.3344 12.2186C11.7259 12.3979 12.4511 12.5561 13.2011 12.5644C14.959 12.5681 16.105 11.6974 16.1177 10.3564L16.117 10.3587ZM21.9998 12.4751L20.6499 6.00056H19.3539C18.9542 6.00056 18.6497 6.11756 18.4787 6.5383L15.991 12.4759H17.7489C17.7489 12.4759 18.0362 11.6756 18.0992 11.5054H20.2494C20.2996 11.7349 20.4496 12.4759 20.4496 12.4759L21.9998 12.4751Z" fill="#4758F0"/>
</svg>
